<svg xmlns="http://www.w3.org/2000/svg" xml:space="preserve" width="1500" height="561" data-id="lg_VQDEbc0DdcWCwplNvi" data-version="1" viewBox="0 0 1500 561"><g data-padding="20"><g transform="translate(10 10)scale(.96435)"><path fill="#fbfbfb" d="M1044.009 277.846v.415Zm-553.98.222v.222-.503Zm555.46.592v-1.184c-.932-56.61-30.991-106.441-80.852-133.703a153.9 153.9 0 0 1-61.213-61.213C875.733 31.915 824.747 1.693 767.027 1.693h-.83c-57.38.296-108.01 30.459-135.567 80.867a153.9 153.9 0 0 1-61.213 61.213c-49.964 27.321-80.038 77.3-80.867 134.059v2.338c0 57.72 30.222 108.706 80.867 136.397a153.9 153.9 0 0 1 61.213 61.213c27.558 50.408 78.189 80.57 135.568 80.867h.829c57.705 0 108.706-30.222 136.397-80.867a153.9 153.9 0 0 1 61.213-61.213c50.645-27.691 80.867-78.677 80.867-136.397Zm-555.444-.37v-.503Zm553.964-.03v-.414Z"/><path fill="#1f2d5a" d="M1046.2 278.166v.418Zm-557.721.224v.223-.506Zm559.222.59v-1.192c-.94-56.992-31.201-107.16-81.4-134.606a154.96 154.96 0 0 1-61.626-61.627C876.798 30.567 825.467.142 767.357.142h-.834c-57.768.298-108.74 30.664-136.484 81.413a154.96 154.96 0 0 1-61.627 61.627c-50.302 27.505-80.58 77.822-81.413 134.964v2.354c0 58.11 30.425 109.44 81.413 137.318a154.96 154.96 0 0 1 61.627 61.627c27.743 50.75 78.716 81.115 136.484 81.413h.834c58.095 0 109.44-30.425 137.318-81.413a154.96 154.96 0 0 1 61.627-61.627c50.988-27.877 81.413-79.208 81.413-137.318Zm-1.49-.402c-.054 5.604-4.64 10.103-10.244 10.05-5.604-.054-10.104-4.64-10.05-10.244 0-5.602 4.56-10.162 10.16-10.162 5.604 0 10.029 4.44 10.133 9.939ZM903.379 82.27a156 156 0 0 0 62.208 62.208c48.097 26.313 77.718 73.68 80.445 127.857a11.682 11.682 0 0 0-20.294.655c-2.503-50.645-30.187-94.928-75.14-119.513a143.04 143.04 0 0 1-56.964-56.962 144.53 144.53 0 0 0-53.03-55.339 143.8 143.8 0 0 0-68.6-19.876 11.25 11.25 0 0 0 .3-19.594c55.502 1.669 104.24 31.514 131.075 80.564m121.048 198.23c0 53.193-27.863 100.202-74.545 125.726a144.53 144.53 0 0 0-57.544 57.544c-25.524 46.682-72.533 74.545-125.726 74.545s-100.188-27.863-125.726-74.545a144.53 144.53 0 0 0-57.544-57.544c-46.682-25.524-74.545-72.533-74.545-125.726s27.863-100.188 74.545-125.726a144.53 144.53 0 0 0 57.544-57.544c25.538-46.682 72.533-74.545 125.726-74.545a143.04 143.04 0 0 1 73.233 19.773 143.04 143.04 0 0 1 52.493 54.772 144.53 144.53 0 0 0 57.544 57.544c46.682 25.538 74.545 72.533 74.545 125.726M766.687 1.632a9.804 9.804 0 1 1-.18 0Zm-197.56 142.846a156 156 0 0 0 62.208-62.208c26.58-48.574 74.634-78.314 129.496-80.504a11.19 11.19 0 0 0-5.498 9.655c0 4.112 2.384 7.971 5.885 9.879-51.51 1.802-96.7 29.636-121.63 75.215a143.04 143.04 0 0 1-56.961 56.962c-45.013 24.615-72.712 69.002-75.156 119.722a10.877 10.877 0 0 0-18.79-.61c2.624-54.282 32.275-101.753 80.446-128.111m-80.638 133.906v-.283c.149-5.051 4.29-9.134 9.387-9.134 5.095 0 9.416 4.232 9.416 9.417s-4.216 9.417-9.416 9.417-9.283-4.098-9.387-9.193ZM631.335 478.73a156 156 0 0 0-62.208-62.208c-49.497-27.073-79.432-76.452-80.61-132.595a10.877 10.877 0 0 0 18.835-.134c1.117 52.388 29.085 98.46 75.275 123.73a143.04 143.04 0 0 1 56.962 56.962c24.928 45.58 70.12 73.413 121.63 75.215a11.25 11.25 0 0 0-.388 19.534c-54.862-2.19-102.915-31.93-129.496-80.504m135.352 80.638h-.18c-5.348-.06-9.684-4.425-9.684-9.789s4.395-9.774 9.789-9.774a9.79 9.79 0 0 1 .075 19.563m198.9-142.846a156 156 0 0 0-62.208 62.208c-26.835 49.05-75.558 78.895-131.075 80.564a11.22 11.22 0 0 0-.298-19.594c51.51-1.803 96.7-29.636 121.629-75.215a143.04 143.04 0 0 1 56.962-56.962c46.13-25.226 74.083-71.208 75.275-123.507a11.667 11.667 0 0 0 20.309.135c-1.237 56.038-31.171 105.328-80.594 132.371"/><rect width="461.28" height="91.53" x="136.717" y="-165.265" fill="none" rx="0" ry="0" transform="translate(400.51 400.03)"/><path fill="#1f2d5a" d="M608.517 277.12q0-6.64 2.95-11.62 2.96-4.98 7.74-7.82 4.78-2.83 10.37-2.83 4.05 0 7.41 1.05t6.11 2.96q2.76 1.9 4.7 4.41v-9.07q-3.56-3.16-7.78-4.7-4.21-1.54-10.44-1.54-5.92 0-11.06 2.15t-9.03 6.07q-3.89 3.93-6.08 9.28-2.18 5.34-2.18 11.66t2.18 11.67q2.19 5.34 6.08 9.27t9.03 6.08q5.14 2.14 11.06 2.14 6.23 0 10.44-1.54 4.22-1.54 7.78-4.69v-9.08q-1.94 2.51-4.7 4.42-2.75 1.9-6.11 2.95-3.36 1.06-7.41 1.06-5.59 0-10.37-2.84-4.78-2.83-7.74-7.85-2.95-5.03-2.95-11.59m47.78 9.72q0 5.59 2.55 10.01 2.55 4.41 6.92 6.92 4.38 2.51 9.8 2.51 5.51 0 9.85-2.51 4.33-2.51 6.88-6.92 2.55-4.42 2.55-10.01 0-5.67-2.55-10.04-2.55-4.38-6.88-6.89-4.34-2.51-9.85-2.51-5.42 0-9.8 2.51-4.37 2.51-6.92 6.89-2.55 4.37-2.55 10.04m6.56 0q0-3.89 1.66-6.92 1.66-3.04 4.53-4.74 2.88-1.7 6.52-1.7 3.65 0 6.52 1.7 2.88 1.7 4.54 4.74 1.66 3.03 1.66 6.92t-1.66 6.89q-1.66 2.99-4.54 4.74-2.87 1.74-6.52 1.74-3.64 0-6.52-1.74-2.87-1.75-4.53-4.74-1.66-3-1.66-6.89m64.8-4.05v22.68h6.48v-23.49q0-6.72-3.45-10.65-3.44-3.93-9.35-3.93-3.65 0-6.44 1.62-2.8 1.62-4.66 5.02v-5.83h-6.48v37.26h6.48v-22.68q0-2.75 1.18-4.86 1.17-2.1 3.32-3.28 2.14-1.17 4.98-1.17 3.89 0 5.91 2.35 2.03 2.35 2.03 6.96m42.52 0v22.68h6.48v-23.49q0-6.72-3.44-10.65t-9.36-3.93q-3.64 0-6.44 1.62-2.79 1.62-4.65 5.02v-5.83h-6.48v37.26h6.48v-22.68q0-2.75 1.17-4.86 1.18-2.1 3.32-3.28 2.15-1.17 4.98-1.17 3.89 0 5.92 2.35 2.02 2.35 2.02 6.96m33.05 23.49q5.99 0 10.41-2.39 4.41-2.39 7.33-7.08l-5.27-3.33q-2.02 3.41-4.94 5.07-2.91 1.66-6.72 1.66t-6.48-1.62-4.05-4.7-1.38-7.45q.08-4.3 1.5-7.25 1.42-2.96 4.05-4.54t6.36-1.58q3.16 0 5.51 1.38t3.68 3.81q1.34 2.43 1.34 5.75 0 .56-.24 1.42-.25.85-.49 1.25l2.59-3.73h-26.73v5.51h31.84q0-.16.04-.77.04-.6.04-1.17 0-5.91-2.11-10.21-2.11-4.29-6.03-6.6-3.93-2.31-9.44-2.31t-9.68 2.43-6.48 6.81q-2.31 4.37-2.31 10.2 0 5.75 2.23 10.13 2.23 4.37 6.24 6.84t9.19 2.47m30.21-19.44q0-3.89 1.66-6.92 1.66-3.04 4.54-4.74 2.87-1.7 6.52-1.7 3 0 5.63.93t4.58 2.47q1.94 1.54 2.75 3.4v-8.1q-1.94-2.27-5.55-3.52-3.6-1.26-7.41-1.26-5.43 0-9.8 2.51-4.38 2.51-6.93 6.89-2.55 4.37-2.55 10.04 0 5.59 2.55 10.01 2.55 4.41 6.93 6.92 4.37 2.51 9.8 2.51 3.81 0 7.41-1.25 3.61-1.26 5.55-3.53v-8.1q-.81 1.79-2.75 3.37-1.95 1.57-4.58 2.51-2.63.93-5.63.93-3.65 0-6.52-1.74-2.88-1.75-4.54-4.74-1.66-3-1.66-6.89m48.77-18.63h-18.63v6.08h18.63Zm-6.07-12.96h-6.48v50.22h6.48Zm19.02-12.96h-6.48v63.18h6.48Zm17.42 81 24.3-55.08h-7.29l-11.5 28.84 2.67.32-11.83-29.16h-7.69l14.26 32-10.21 23.08Z"/><rect width="62.601" height="54.941" x="336.056" y="-146.97" fill="none" rx="0" ry="0" transform="translate(400.5 525.96)"/><path fill="#1f2d5a" d="M747.747 399.27v2.08h9.18v-2.08Zm0-16.12v2.08h9.18v-2.08Zm0 7.28v2.08h8.66v-2.08Zm.99-7.28h-2.21v18.2h2.21Zm12.77 12.69-1.77 1.19q.6 1.2 1.55 2.25t2.21 1.69 2.74.64q1.1 0 2.1-.37 1-.36 1.79-1.04.79-.67 1.25-1.63.45-.97.45-2.16 0-1.25-.44-2.15-.44-.89-1.13-1.53t-1.49-1.05q-.81-.42-1.54-.68-1.58-.55-2.51-1.1-.92-.56-1.31-1.2t-.39-1.39q0-.89.68-1.6.67-.72 2.15-.72 1.07 0 1.81.42t1.26 1.07.86 1.32l1.9-1.09q-.44-.96-1.22-1.83t-1.89-1.43q-1.1-.56-2.59-.56-1.53 0-2.73.61-1.19.61-1.87 1.68-.67 1.06-.67 2.41 0 1.25.48 2.11t1.23 1.44q.76.59 1.59.97.83.37 1.51.61 1.04.36 1.96.82.92.45 1.49 1.18.58.73.58 1.95 0 1.25-.89 2.05-.88.81-2.34.81-1.09 0-1.95-.47t-1.54-1.3q-.69-.83-1.32-1.92m11.75-12.69v2.08h4.68v16.12h2.21v-16.12h4.68v-2.08Zm14.29 17.16q0 .57.43 1t1 .43q.6 0 1.02-.43.41-.43.41-1 0-.6-.41-1.02-.42-.41-1.02-.41-.57 0-1 .41-.43.42-.43 1.02m-41.26 17.42-8.6 9.18h12.84v-2.08h-8.29l5.79-5.9q1.07-1.09 1.75-2.47.67-1.38.67-2.78 0-.84-.34-1.75-.33-.91-1.04-1.7-.7-.79-1.79-1.3t-2.6-.51q-1.87 0-3.21.82t-2.04 2.29-.7 3.42h2.21q0-1.38.44-2.38t1.29-1.53q.84-.54 2.01-.54.83 0 1.48.29t1.11.75q.45.47.69 1.04.23.58.23 1.17 0 .73-.22 1.39-.22.67-.65 1.3-.43.64-1.03 1.29m8.92.08q0-1.59.31-2.93.31-1.33.91-2.31.6-.97 1.45-1.51.84-.53 1.88-.53 1.07 0 1.9.53.83.54 1.43 1.51.6.98.91 2.31.31 1.34.31 2.93t-.31 2.92q-.31 1.34-.91 2.32-.6.97-1.43 1.51-.83.53-1.9.53-1.04 0-1.88-.53-.85-.54-1.45-1.51-.6-.98-.91-2.32-.31-1.33-.31-2.92m-2.21 0q0 2.73.86 4.84.86 2.1 2.38 3.31t3.52 1.21 3.52-1.21 2.38-3.31q.86-2.11.86-4.84t-.86-4.84q-.86-2.1-2.38-3.31t-3.52-1.21-3.52 1.21-2.38 3.31q-.86 2.11-.86 4.84m23.69-.08-8.61 9.18h12.84v-2.08h-8.29l5.8-5.9q1.06-1.09 1.74-2.47t.68-2.78q0-.84-.34-1.75t-1.04-1.7-1.8-1.3q-1.09-.51-2.6-.51-1.87 0-3.21.82t-2.04 2.29-.7 3.42h2.21q0-1.38.44-2.38t1.29-1.53q.84-.54 2.01-.54.84 0 1.49.29t1.1.75q.46.47.69 1.04.23.58.23 1.17 0 .73-.22 1.39-.22.67-.65 1.3-.43.64-1.02 1.29m16.27-9.02-10.09 14.56h13.86v-1.95h-10.22l5.15-7.7v13.29h2.21v-18.2Z"/></g><path fill="transparent" stroke="transparent" d="M469.5 0h561v561h-561z"/></g></svg>